<?xml version="1.0" encoding="iso-8859-1"?>
<!-- Uploaded to: SVG Repo, www.svgrepo.com, Generator: SVG Repo Mixer Tools -->
<svg fill="#000000" height="800px" width="800px" version="1.1" id="Layer_1" xmlns="http://www.w3.org/2000/svg" xmlns:xlink="http://www.w3.org/1999/xlink" 
	 viewBox="0 0 510.549 510.549" xml:space="preserve">
<g transform="translate(1 1)">
	<g>
		<path d="M507.508,5.528c-1.707-2.56-4.267-3.413-6.827-3.413H364.148H224.201c-0.756,0-1.509,0.084-2.243,0.232
			c-0.64-0.142-1.309-0.232-2.023-0.232h-0.853H82.548h-1.707c-4.267,0-7.68,2.56-8.533,5.973l-10.24,49.493
			c-0.219,1.313-0.437,2.627-0.642,3.954l-19.838,95.886c-0.356,1.71-0.631,3.42-0.87,5.129l-19.11,93.958
			c-0.22,0.517-0.39,1.054-0.5,1.607L0.628,358.808c-4.267,20.48,0,40.96,11.093,58.027c11.093,17.067,28.16,29.013,48.64,32.427
			c5.12,0.853,10.24,1.707,15.36,1.707c15.36,0,29.867-4.267,41.813-12.8c6.991-4.544,13.105-10.105,18.202-16.478
			c2.198,7.534,5.522,14.773,9.958,21.597c11.093,17.067,28.16,29.013,48.64,33.28c5.12,0.853,10.24,1.707,15.36,1.707
			c14.507,0,29.013-4.267,42.667-12.8c6.625-4.306,12.466-9.522,17.398-15.479c7.416,26.747,29.184,48.739,58.548,54.732
			c5.12,0.853,10.24,1.707,15.36,1.707c14.507,0,29.013-4.267,43.52-13.653c17.067-11.093,29.013-28.16,33.28-48.64l20.48-99.84
			c0.214-1.285,0.159-2.516-0.11-3.653l17.192-84.529c1.413-3.743,2.559-7.632,3.398-11.658l20.48-99.84
			c0.082-0.491,0.113-0.971,0.119-1.445l19.507-96.689v-0.853c0.122-0.731,0.148-1.441,0.106-2.129l7.574-30.297
			C510.068,10.648,509.214,8.088,507.508,5.528z M110.656,331.863c-0.499,0.125-1.003,0.232-1.506,0.344
			c-0.451,0.1-0.9,0.207-1.353,0.297c-0.639,0.127-1.283,0.236-1.928,0.341c-0.276,0.046-0.552,0.098-0.829,0.14
			c-6.725,1.003-13.735,0.853-20.786-0.631c-19.13-3.524-34.096-16.259-41.932-32.765c-5.192-11.343-6.917-24.562-4.148-38.062
			c0.211-1.264,0.159-2.476-0.099-3.598l10.339-49.309c10.24,20.48,29.013,35.84,53.76,40.96
			c22.77,4.217,46.368-1.574,63.392-15.712l-9.793,48.147c-0.758,1.01-1.299,2.169-1.546,3.405l-1.888,9.284
			c-7.021,18.365-22.39,31.951-40.669,36.884C111.332,331.68,110.995,331.778,110.656,331.863z M438.388,178.755
			c-9.293,5.808-19.773,9.237-30.362,9.763c-4.605,0.143-9.298-0.237-14.012-1.23c-29.213-6.15-50.104-32.386-48.969-61.236
			c0.025-0.438,0.071-0.878,0.106-1.317l1.929-9.98c0.074-0.443,0.113-0.868,0.137-1.285l13.516-52.475
			c0.445,0.89,0.896,2.014,1.582,3.246c0.58,1.211,1.186,2.408,1.831,3.58c9.387,18.773,26.453,31.573,46.08,35.84
			c1.165,0.166,2.291,0.331,3.404,0.491c18.842,3.449,38.294-0.08,54.623-9.878c2.56-0.853,4.267-2.56,6.827-4.267l-10.24,51.2
			C461.428,156.568,452.041,170.221,438.388,178.755z M263.454,351.128c-13.653,8.533-29.867,11.947-45.227,8.533
			c-28.325-5.963-48.182-30.809-48.203-58.611c1.218-3.389,2.223-6.893,2.977-10.509l10.52-51.723
			c10.454,18.643,28.718,33.159,51.773,38.923c23.04,4.267,46.933-1.707,64-16.213l-11.093,52.907
			c-2.499,11.247-7.756,21.569-15.746,29.646C269.752,346.695,266.757,349.064,263.454,351.128z M308.681,212.888
			c-3.927,18.651-16.048,33.617-31.801,41.681c-11.249,5.314-24.213,7.158-37.319,4.399c-28.346-5.968-48.213-30.846-48.205-58.673
			l2.125-10.447c0.084-0.506,0.116-1,0.12-1.486l9.746-51.385c10.339,19.199,28.898,34.176,52.428,39.218
			c23.04,4.267,46.933-1.707,64-16.213L308.681,212.888z M330.014,113.048l-1.405,6.909c-9.921,27.207-38.88,44.568-68.568,38.318
			c-29.579-6.227-50.625-33.047-48.914-62.321l1.128-5.945v-0.853l10.931-54.657c10.436,20.52,29.632,35.936,53.069,41.003
			c5.12,0.853,9.387,1.707,14.507,1.707c19.04,0,37.852-7.251,52.781-19.174L330.014,113.048z M196.772,81.942
			c-0.332,0.662-0.585,1.363-0.731,2.092l-1.457,7.164c-4.086,13.109-12.131,24.582-24.143,32.089
			c-13.653,8.533-29.867,11.947-45.227,8.533c-14.728-3.222-27.462-11.662-36.076-23.168C79.718,95.571,75.559,78.83,79.134,61.848
			l6.847-34.236c12.855,12.887,33.388,25.703,56.299,25.703c19.097,0,44.465-7.07,63.612-18.803L196.772,81.942z M96.865,139.068
			c7.441,4.734,15.812,8.393,24.936,10.674c23.04,4.267,46.933-1.707,64-16.213l-11.093,52.907
			c-3.413,15.36-11.947,29.013-25.6,37.547c-9.665,6.041-20.613,9.499-31.633,9.803c-3.92-0.021-7.897-0.43-11.887-1.27
			c-32.427-6.827-53.76-38.4-46.933-70.827c0.211-1.264,0.159-2.476-0.099-3.598l10.338-49.305
			C75.315,121.219,85.029,131.734,96.865,139.068z M422.174,341.741c-3.413,15.36-11.947,29.013-25.6,37.547
			c-9.654,6.034-20.589,9.492-31.596,9.803c-3.932-0.017-7.921-0.427-11.924-1.269c-30.361-6.392-50.995-34.479-47.897-64.648
			c0.704-2.296,1.318-4.638,1.817-7.032l10.208-50.192c0.917,1.697,2.18,3.289,3.445,5.818c11.093,17.067,28.16,29.013,48.64,33.28
			c19.99,3.702,40.619-0.309,56.878-10.909c0.667-0.342,1.335-0.684,2.002-1.037c1.713-1.113,3.359-2.303,4.966-3.534
			L422.174,341.741z M443.508,240.195c-4.846,23.019-22.168,40.434-43.408,46.167c-0.34,0.091-0.678,0.19-1.019,0.275
			c-0.496,0.125-0.998,0.231-1.499,0.343c-0.453,0.101-0.904,0.208-1.358,0.298c-0.641,0.127-1.286,0.236-1.933,0.342
			c-0.274,0.046-0.548,0.098-0.823,0.139c-6.725,1.003-13.736,0.853-20.787-0.631c-6.651-1.478-12.98-3.92-18.714-7.318
			c-0.084-0.05-0.17-0.098-0.253-0.148c-0.627-0.376-1.242-0.771-1.854-1.171c-0.234-0.153-0.471-0.301-0.702-0.457
			c-0.589-0.396-1.168-0.808-1.742-1.226c-0.185-0.134-0.372-0.265-0.555-0.401c-5.353-3.997-10.022-8.954-13.725-14.879
			c-6.805-10.888-10.34-23.403-9.768-35.816l1.437-7.066c0.222-0.779,0.448-1.555,0.65-2.345l10.003-51.756
			c10.363,19.865,28.869,33.95,53.143,39.809c23.04,4.267,46.933-1.707,64-16.213l-10.565,50.388
			C443.804,239.064,443.623,239.621,443.508,240.195z M485.017,40.511c-0.242,0.549-0.431,1.12-0.549,1.71v0.853
			c-3.413,15.36-12.8,28.16-25.6,35.84c-13.653,8.533-29.867,11.093-44.373,7.68c-15.36-2.56-27.307-11.947-34.987-26.453
			c-6.827-11.947-9.387-26.453-7.68-40.96h117.76L485.017,40.511z M353.054,19.181c-11.947,27.307-44.373,46.08-73.387,40.107
			c-21.333-4.267-38.4-19.627-44.373-40.107H353.054z M198.601,19.181c-16.213,10.24-39.253,17.067-56.32,17.067
			c-14.507,0-29.867-7.68-40.107-17.067H198.601z M108.148,424.515c-13.653,8.533-29.867,11.947-45.227,8.533
			s-29.013-11.947-37.547-25.6c-8.533-13.653-11.947-29.867-8.533-45.227l11.093-52.907c1.143,2.191,2.408,4.319,3.759,6.396
			c0.151,0.236,0.294,0.478,0.448,0.712c0.047,0.071,0.098,0.14,0.146,0.211c5.374,8.116,12.285,15.234,20.444,20.856
			c8.202,5.77,17.667,10.174,28.11,12.785c15.165,2.808,30.7,1.179,44.414-4.399c4.923-1.804,9.747-4.04,14.466-6.694
			c1.431-0.93,2.811-1.917,4.168-2.929l-10.142,49.862c-0.115,0.69-0.199,1.377-0.297,2.065
			C129.864,403.043,121.439,416.207,108.148,424.515z M242.121,451.821c-13.653,8.533-29.867,11.947-45.227,8.533
			c-15.36-3.413-29.013-11.947-37.547-25.6s-11.947-29.867-8.533-45.227l11.176-52.752c10.257,20.397,28.99,34.845,51.97,39.952
			c4.004,0.834,8.007,1.331,11.986,1.526c1.409,0.112,2.818,0.181,4.227,0.181c14.507,0,29.013-4.267,43.52-13.653
			c1.714-1.114,3.361-2.304,4.969-3.536l-10.943,53.03C264.308,429.635,255.774,443.288,242.121,451.821z M401.694,441.581
			c-3.413,15.36-11.947,29.013-25.6,37.547s-29.867,11.947-45.227,8.533c-15.36-3.413-29.013-11.947-37.547-25.6
			c-7.146-11.433-10.683-24.661-9.646-37.68c0.773-2.458,1.43-4.975,1.966-7.547l10.679-52.058
			c10.331,20.053,28.907,35.063,52.468,40.112c23.04,4.267,46.933-1.707,64-16.213L401.694,441.581z"/>
	</g>
</g>
</svg>