<?xml version="1.0" encoding="iso-8859-1"?>
<!-- Uploaded to: SVG Repo, www.svgrepo.com, Generator: SVG Repo Mixer Tools -->
<svg fill="#000000" height="800px" width="800px" version="1.1" id="Layer_1" xmlns="http://www.w3.org/2000/svg" xmlns:xlink="http://www.w3.org/1999/xlink" 
	 viewBox="0 0 512 512" xml:space="preserve">
<g>
	<g>
		<path d="M509.128,174.29L442.413,74.217c-3.096-4.645-8.308-7.434-13.891-7.434H233.739V16.696c0-9.22-7.475-16.696-16.696-16.696
			H116.87c-9.22,0-16.696,7.475-16.696,16.696v50.087H83.478c-5.582,0-10.795,2.789-13.892,7.435L2.866,174.297
			C0.971,177.141,0,180.424,0,183.652v311.652C0,504.525,7.475,512,16.696,512c6.943,0,467.066,0,478.609,0
			c9.22,0,16.696-7.475,16.696-16.696V183.652C512,180.491,511.023,177.062,509.128,174.29z M133.565,33.391h66.783v33.391h-66.783
			V33.391z M92.414,100.174h327.174l44.522,66.783H47.892L92.414,100.174z M411.826,478.609H311.652V367.304h16.696
			c9.22,0,16.696-7.475,16.696-16.696s-7.475-16.696-16.696-16.696h-16.696V267.13h100.174V478.609z M478.609,478.609h-33.391
			V250.435c0-9.22-7.475-16.696-16.696-16.696H294.957c-9.22,0-16.696,7.475-16.696,16.696v228.174H33.391V200.348h445.217V478.609z
			"/>
	</g>
</g>
<g>
	<g>
		<path d="M217.043,233.739H83.478c-9.22,0-16.696,7.475-16.696,16.696V384c0,9.22,7.475,16.696,16.696,16.696h133.565
			c9.22,0,16.696-7.475,16.696-16.696V250.435C233.739,241.214,226.264,233.739,217.043,233.739z M100.174,267.13h33.391v33.391
			h-33.391V267.13z M200.348,367.304H100.174v-33.391h100.174V367.304z M200.348,300.522h-33.391V267.13h33.391V300.522z"/>
	</g>
</g>
</svg>