<?xml version="1.0" encoding="iso-8859-1"?>
<!-- Uploaded to: SVG Repo, www.svgrepo.com, Generator: SVG Repo Mixer Tools -->
<svg fill="#000000" height="800px" width="800px" version="1.1" id="Layer_1" xmlns="http://www.w3.org/2000/svg" xmlns:xlink="http://www.w3.org/1999/xlink" 
	 viewBox="0 0 512.001 512.001" xml:space="preserve">
<g>
	<g>
		<path d="M511.702,427.936l-43.886-263.314c-1.764-10.581-10.917-18.335-21.644-18.335H409.6v-45.161
			c8.517-3.015,14.629-11.118,14.629-20.667c0-12.118-9.825-21.943-21.943-21.943h-14.629h-87.771h-14.629
			c-12.118,0-21.943,9.825-21.943,21.943c0,9.549,6.112,17.652,14.629,20.667v45.161H65.829c-10.727,0-19.88,7.755-21.644,18.335
			L0.299,427.936c-1.061,6.362,0.733,12.869,4.902,17.791c4.169,4.921,10.293,7.759,16.742,7.759h468.114
			c6.45,0,12.573-2.838,16.742-7.759C510.97,440.805,512.762,434.298,511.702,427.936z M321.829,102.4h43.886v43.886h-43.886V102.4z
			 M84.417,190.172h215.469h87.771h39.926l7.314,43.886H77.103L84.417,190.172z M69.789,277.943h372.423l7.314,43.886H62.475
			L69.789,277.943z M47.846,409.6l7.314-43.886h401.68l7.314,43.886H47.846z"/>
	</g>
</g>
</svg>